<svg xmlns="http://www.w3.org/2000/svg" viewBox="0 0 512 512">
  <rect width="512" height="512" rx="128" fill="#0f172a"/>
  <path d="M256 32C132.3 32 32 132.3 32 256s100.3 224 224 224 224-100.3 224-224S379.7 32 256 32zm0 48c97.2 0 176 78.8 176 176 0 97.2-78.8 176-176 176S80 353.2 80 256 158.8 80 256 80z" fill="#16a34a"/>
  <path d="M256 128c-70.7 0-128 57.3-128 128 0 70.7 57.3 128 128 128s128-57.3 128-128c0-70.7-57.3-128-128-128zm0 192c-35.3 0-64-28.7-64-64 0-35.3 28.7-64 64-64s64 28.7 64 64c0 35.3-28.7 64-64 64z" fill="#fff"/>
  <path d="M256 256l64-64" stroke="#16a34a" stroke-width="24" stroke-linecap="round"/>
</svg>